<?xml version="1.0" encoding="utf-8"?>
<!-- Generator: Adobe Illustrator 24.0.0, SVG Export Plug-In . SVG Version: 6.00 Build 0)  -->
<svg version="1.1" id="Layer_1" xmlns="http://www.w3.org/2000/svg" xmlns:xlink="http://www.w3.org/1999/xlink" x="0px" y="0px"
	 viewBox="0 0 86.6 48" style="enable-background:new 0 0 86.6 48;" xml:space="preserve">
<style type="text/css">
	.st0{fill:#FFFFFF;}
</style>
<title>Asset 1</title>
<g id="Layer_2_1_">
	<g id="Layer_1-2">
		<polygon class="st0" points="20.3,22.3 0,6.6 0,43.2 5.7,43.9 5.7,22.2 20.3,35.1 35.8,19.4 35.8,47.3 41.6,48 41.6,0 		"/>
		<polygon class="st0" points="32.2,46.9 32.2,37.9 23.6,45.9 		"/>
		<polygon class="st0" points="9.3,44.3 17.2,45.2 9.3,38.5 		"/>
		<polygon class="st0" points="9.3,29.3 9.3,35.6 20.6,45.6 32.2,34.3 32.2,27.6 20.6,39.1 		"/>
		<polygon class="st0" points="66.3,22.3 86.6,6.6 86.6,43.2 80.9,43.9 80.9,22.2 66.3,35.1 50.8,19.4 50.8,47.3 45.1,48 45.1,0 		
			"/>
		<polygon class="st0" points="54.4,46.9 54.4,37.9 63,45.9 		"/>
		<polygon class="st0" points="77.3,44.3 69.4,45.2 77.3,38.5 		"/>
		<polygon class="st0" points="77.3,29.3 77.3,35.6 66,45.6 54.4,34.3 54.4,27.6 66,39.1 		"/>
	</g>
</g>
</svg>
